<svg width="26" height="34" viewBox="0 0 26 34" fill="none" xmlns="http://www.w3.org/2000/svg">
	<path d="M1.22634 33.4767C1.49595 33.6169 1.79866 33.6811 2.10198 33.6623C2.4053 33.6435 2.69777 33.5425 2.94801 33.37L24.6147 18.37C24.8361 18.2166 25.017 18.0119 25.142 17.7733C25.2669 17.5347 25.3322 17.2694 25.3322 17C25.3322 16.7307 25.2669 16.4654 25.142 16.2268C25.017 15.9882 24.8361 15.7834 24.6147 15.63L2.94801 0.630028C2.69796 0.457016 2.40536 0.355703 2.10186 0.33706C1.79837 0.318416 1.49556 0.383153 1.22622 0.52426C0.956885 0.665367 0.73128 0.877467 0.573836 1.13759C0.416393 1.39772 0.33311 1.69596 0.333008 2.00003V32C0.332958 32.3043 0.41618 32.6027 0.573653 32.863C0.731127 33.1233 0.956845 33.3355 1.22634 33.4767Z" fill="url(#paint0_linear)" />
	<defs>
		<linearGradient id="paint0_linear" x1="12.8326" y1="0.333923" x2="12.8326" y2="33.6655" gradientUnits="userSpaceOnUse">
			<stop stop-color="#163C5A" />
			<stop offset="0.46875" stop-color="#213F5C" />
			<stop offset="1" stop-color="#C4C4C4" />
		</linearGradient>
	</defs>
</svg>
