<svg width="26" height="34" viewBox="0 0 26 34" fill="none" xmlns="http://www.w3.org/2000/svg">
	<path d="M24.7727 33.4767C24.5031 33.6169 24.2004 33.6811 23.897 33.6623C23.5937 33.6435 23.3013 33.5425 23.051 33.37L1.38435 18.37C1.16295 18.2166 0.982025 18.0119 0.857063 17.7733C0.732101 17.5347 0.666828 17.2694 0.666828 17C0.666828 16.7307 0.732101 16.4654 0.857063 16.2268C0.982025 15.9882 1.16295 15.7834 1.38435 15.63L23.051 0.630028C23.3011 0.457016 23.5937 0.355703 23.8972 0.33706C24.2007 0.318416 24.5035 0.383153 24.7728 0.52426C25.0421 0.665367 25.2677 0.877467 25.4252 1.13759C25.5826 1.39772 25.6659 1.69596 25.666 2.00003V32C25.6661 32.3043 25.5828 32.6027 25.4254 32.863C25.2679 33.1233 25.0422 33.3355 24.7727 33.4767Z" fill="url(#paint0_linear)" />
	<defs>
		<linearGradient id="paint0_linear" x1="13.1664" y1="0.333923" x2="13.1664" y2="33.6655" gradientUnits="userSpaceOnUse">
			<stop stop-color="#163C5A" />
			<stop offset="0.46875" stop-color="#213F5C" />
			<stop offset="1" stop-color="#C4C4C4" />
		</linearGradient>
	</defs>
</svg>
